<?xml version="1.0" encoding="utf-8"?>
<!-- Generator: Adobe Illustrator 19.0.0, SVG Export Plug-In . SVG Version: 6.00 Build 0)  -->
<svg version="1.1" id="Capa_1" xmlns="http://www.w3.org/2000/svg" xmlns:xlink="http://www.w3.org/1999/xlink" x="0px" y="0px"
	 viewBox="0 0 80 80" style="enable-background:new 0 0 80 80;" xml:space="preserve">
<style type="text/css">
	.st0{fill:url(#XMLID_111_);}
	.st1{fill:url(#XMLID_112_);}
	.st2{fill:url(#XMLID_113_);}
	.st3{fill:url(#XMLID_114_);}
</style>
<g id="XMLID_109_">
	<linearGradient id="XMLID_111_" gradientUnits="userSpaceOnUse" x1="14.5773" y1="56.1875" x2="14.5773" y2="50.1875">
		<stop  offset="0" style="stop-color:#FF6348"/>
		<stop  offset="1" style="stop-color:#FF7F50"/>
	</linearGradient>
	<path id="XMLID_146_" class="st0" d="M19.9,50.2H9.3c-1.6,0-2.9,1.4-2.9,3s1.3,3,2.9,3h10.6c1.6,0,2.9-1.4,2.9-3
		S21.5,50.2,19.9,50.2z"/>
	<linearGradient id="XMLID_112_" gradientUnits="userSpaceOnUse" x1="39.6461" y1="66.1875" x2="39.6461" y2="13.834">
		<stop  offset="0" style="stop-color:#FF6348"/>
		<stop  offset="1" style="stop-color:#FF7F50"/>
	</linearGradient>
	<path id="XMLID_123_" class="st1" d="M75,57.2h-3.2c1.7-2,3-4.5,4-6.9c1.3-3.2,1.9-6.5,1.9-10.2c0-3.5-0.7-6.9-2.1-10.1
		c-1.4-3.2-3.3-6-5.7-8.4c-2.4-2.4-5.2-4.3-8.4-5.7c-3.2-1.4-6.6-2.1-10.2-2.1c-3.6,0-7.1,0.7-10.3,2.1c-3.2,1.4-6,3.1-8.3,5.5
		c-1.4,1.5-2.7,2.7-3.8,4.7h-13c-1.6,0-2.9,1.4-2.9,3s1.3,3,2.9,3h10.4c-0.6,2-1,4-1.1,6H2.8c-1.6,0-2.9,1.4-2.9,3
		c0,1.6,1.3,3,2.9,3h22.3c0.3,2,0.9,4.3,1.8,6.3c1.4,3.2,3.3,6,5.6,8.3c2.4,2.4,5.2,4.1,8.3,5.5c3.2,1.4,6.6,1.9,10.2,1.9H75
		c2.4,0,4.4-2.1,4.4-4.5S77.4,57.2,75,57.2z M68.3,47.4c-1,2.3-2.3,4.3-3.9,5.9c-1.7,1.7-3.6,3-5.8,4c-2.2,1-4.6,1.5-7.1,1.5
		c-2.6,0-5-0.5-7.2-1.5c-2.3-1-4.2-2.3-5.9-4c-1.7-1.7-3-3.7-3.9-5.9c-1-2.3-1.4-4.7-1.4-7.3c0-2.6,0.5-5,1.4-7.3
		c1-2.3,2.3-4.3,3.9-6c1.6-1.7,3.6-3,5.8-4c2.3-1,4.6-1.5,7.2-1.5c2.5,0,4.9,0.5,7.2,1.5c2.3,1,4.2,2.3,5.9,4c1.7,1.7,3,3.7,4,5.9
		c1,2.3,1.5,4.7,1.5,7.3C69.7,42.7,69.3,45.2,68.3,47.4z"/>
</g>
<linearGradient id="XMLID_113_" gradientUnits="userSpaceOnUse" x1="308.4243" y1="416.1875" x2="308.4243" y2="406.1875">
	<stop  offset="0" style="stop-color:#FF6348"/>
	<stop  offset="1" style="stop-color:#FF7F50"/>
</linearGradient>
<path id="XMLID_108_" class="st2" d="M317.4,406.2h-18c-2.8,0-5,2.2-5,5s2.2,5,5,5h18c2.8,0,5-2.2,5-5S320.2,406.2,317.4,406.2z"/>
<linearGradient id="XMLID_114_" gradientUnits="userSpaceOnUse" x1="351.1743" y1="434.1875" x2="351.1743" y2="344.4001">
	<stop  offset="0" style="stop-color:#FF6348"/>
	<stop  offset="1" style="stop-color:#FF7F50"/>
</linearGradient>
<path id="XMLID_105_" class="st3" d="M411.4,419.2h-5.5c3-5,5.1-8.1,6.7-12.1c2.2-5.5,3.3-11.3,3.3-17.6c0-6-1.2-11.9-3.6-17.3
	c-2.4-5.4-5.7-10.3-9.8-14.4c-4.1-4.1-8.9-7.4-14.4-9.8c-5.4-2.4-11.3-3.6-17.4-3.6c-6.2,0-12.1,1.2-17.5,3.6
	c-5.4,2.4-10.2,5.7-14.2,9.8c-2.5,2.5-4.6,5.4-6.5,8.4h-22.2c-2.8,0-5,2.2-5,5s2.2,5,5,5h17.7c-1,3-1.7,7-1.9,10h-37.7
	c-2.8,0-5,2.2-5,5c0,2.8,2.2,5,5,5h38.1c0.5,4,1.6,7.3,3,10.8c2.3,5.4,5.6,10.2,9.6,14.2c4,4.1,8.8,7.2,14.2,9.6
	c5.4,2.3,11.3,3.4,17.5,3.4h40.6c4.1,0,7.5-3.4,7.5-7.5S415.6,419.2,411.4,419.2z M400,401.7c-1.6,3.9-3.9,7.3-6.7,10.1
	c-2.8,2.9-6.2,5.2-10,6.8c-3.8,1.7-7.9,2.5-12.2,2.5c-4.4,0-8.5-0.8-12.4-2.5c-3.8-1.7-7.2-4-10-6.8c-2.8-2.9-5.1-6.3-6.7-10.1
	c-1.6-3.9-2.5-8-2.5-12.4c0-4.4,0.8-8.6,2.5-12.5c1.6-3.9,3.9-7.3,6.7-10.2c2.8-2.9,6.1-5.2,10-6.8c3.8-1.7,7.9-2.5,12.2-2.5
	s8.4,0.8,12.2,2.5c3.8,1.7,7.2,4,10,6.8c2.8,2.9,5.1,6.3,6.8,10.1c1.7,3.9,2.5,8,2.5,12.4C402.5,393.6,401.7,397.8,400,401.7z"/>
</svg>
