<?xml version="1.0" encoding="utf-8"?>
<!-- Generator: Adobe Illustrator 19.0.0, SVG Export Plug-In . SVG Version: 6.00 Build 0)  -->
<svg version="1.1" id="Capa_1" xmlns="http://www.w3.org/2000/svg" xmlns:xlink="http://www.w3.org/1999/xlink" x="0px" y="0px"
	 viewBox="0 0 193.4 30.2" style="enable-background:new 0 0 193.4 30.2;" xml:space="preserve">
<style type="text/css">
	.st0{fill:#FFFFFF;}
</style>
<g id="XMLID_98_">
	<g id="XMLID_111_">
		<path id="XMLID_153_" class="st0" d="M51.8,8.4c0.3,0.3,0.4,0.7,0.4,1.2v13.3c0,0.5-0.2,0.8-0.5,1.1c-0.3,0.3-0.7,0.4-1.2,0.4
			c-0.5,0-0.8-0.1-1.1-0.4c-0.3-0.3-0.4-0.6-0.4-1.1v-1.2c-0.5,0.9-1.2,1.6-2.1,2.1c-0.9,0.5-1.9,0.7-3,0.7c-3.9,0-5.8-2.1-5.8-6.4
			V9.6c0-0.5,0.1-0.9,0.4-1.2C39,8.1,39.4,8,39.9,8c0.5,0,0.9,0.1,1.2,0.4c0.3,0.3,0.4,0.7,0.4,1.2V18c0,1.3,0.3,2.2,0.8,2.8
			c0.5,0.6,1.3,0.9,2.4,0.9c1.3,0,2.3-0.4,3.1-1.2c0.8-0.8,1.2-1.9,1.2-3.3V9.6c0-0.5,0.2-0.9,0.5-1.2C49.7,8.1,50.1,8,50.6,8
			C51.1,8,51.5,8.1,51.8,8.4z"/>
		<path id="XMLID_150_" class="st0" d="M68.4,20.6c0.2,0.2,0.3,0.5,0.3,0.9c0,0.6-0.4,1.2-1.2,1.6c-0.8,0.4-1.6,0.8-2.5,1
			c-0.9,0.2-1.8,0.4-2.6,0.4c-2.5,0-4.5-0.7-6-2.2c-1.5-1.5-2.2-3.5-2.2-6c0-1.6,0.3-3.1,1-4.3c0.6-1.3,1.5-2.2,2.7-2.9
			c1.2-0.7,2.5-1,4-1c2.1,0,3.8,0.7,5.1,2.1c1.2,1.4,1.9,3.2,1.9,5.5c0,0.9-0.4,1.3-1.2,1.3H57.6c0.2,3.4,1.8,5.1,4.9,5.1
			c0.8,0,1.5-0.1,2.1-0.3c0.6-0.2,1.2-0.5,1.9-0.8c0.1,0,0.2-0.1,0.5-0.3c0.3-0.1,0.5-0.2,0.7-0.2C68,20.2,68.2,20.3,68.4,20.6z
			 M59,11.5c-0.8,0.8-1.2,1.9-1.4,3.4H66c-0.1-1.5-0.4-2.6-1.1-3.4c-0.7-0.8-1.6-1.2-2.9-1.2C60.8,10.3,59.7,10.7,59,11.5z"/>
		<path id="XMLID_148_" class="st0" d="M73.6,23.4c-1.2-0.7-2.1-1.6-2.7-2.9c-0.6-1.2-1-2.7-1-4.3c0-1.7,0.3-3.1,1-4.4
			c0.7-1.3,1.6-2.2,2.8-2.9c1.2-0.7,2.6-1,4.1-1c0.8,0,1.7,0.1,2.5,0.4c0.8,0.2,1.6,0.6,2.2,1c0.7,0.5,1,1,1,1.7
			c0,0.4-0.1,0.7-0.3,0.9c-0.2,0.3-0.4,0.4-0.8,0.4c-0.2,0-0.4,0-0.6-0.1c-0.2-0.1-0.4-0.2-0.8-0.4c-0.5-0.3-1-0.6-1.5-0.8
			c-0.5-0.2-1-0.3-1.7-0.3c-1.5,0-2.6,0.5-3.4,1.5c-0.8,1-1.2,2.4-1.2,4.2c0,1.8,0.4,3.2,1.2,4.1c0.8,1,1.9,1.5,3.4,1.5
			c0.7,0,1.2-0.1,1.7-0.3c0.5-0.2,1-0.5,1.5-0.8c0.2-0.2,0.5-0.3,0.7-0.4c0.2-0.1,0.5-0.2,0.7-0.2c0.3,0,0.6,0.1,0.8,0.4
			c0.2,0.3,0.3,0.6,0.3,0.9c0,0.3-0.1,0.6-0.2,0.8c-0.2,0.3-0.4,0.5-0.8,0.8c-0.7,0.4-1.4,0.8-2.3,1c-0.9,0.2-1.8,0.4-2.6,0.4
			C76.1,24.4,74.8,24.1,73.6,23.4z"/>
		<path id="XMLID_125_" class="st0" d="M87.8,23.4c-1.2-0.7-2.1-1.6-2.7-2.9c-0.6-1.3-1-2.7-1-4.4c0-1.7,0.3-3.1,1-4.4
			c0.6-1.3,1.6-2.2,2.7-2.9c1.2-0.7,2.6-1,4.1-1c1.6,0,2.9,0.3,4.1,1c1.2,0.7,2.1,1.6,2.7,2.9c0.6,1.3,1,2.7,1,4.4
			c0,1.7-0.3,3.1-1,4.4c-0.6,1.3-1.6,2.2-2.7,2.9c-1.2,0.7-2.6,1-4.1,1C90.3,24.4,88.9,24.1,87.8,23.4z M95.2,20.4
			c0.8-1,1.2-2.4,1.2-4.2c0-1.8-0.4-3.2-1.2-4.2c-0.8-1-1.9-1.5-3.3-1.5S89.3,11,88.6,12c-0.8,1-1.2,2.4-1.2,4.2
			c0,1.8,0.4,3.3,1.2,4.2c0.8,1,1.9,1.4,3.3,1.4C93.3,21.8,94.5,21.3,95.2,20.4z"/>
		<path id="XMLID_123_" class="st0" d="M125.4,14.3v8.5c0,0.5-0.2,0.9-0.5,1.2c-0.3,0.3-0.7,0.4-1.2,0.4c-0.5,0-0.9-0.1-1.2-0.4
			c-0.3-0.3-0.5-0.7-0.5-1.2v-8.4c0-1.3-0.2-2.3-0.7-2.9c-0.5-0.6-1.2-0.9-2.3-0.9c-1.2,0-2.1,0.4-2.8,1.2c-0.7,0.8-1,1.9-1,3.3v7.7
			c0,0.5-0.2,0.9-0.5,1.2c-0.3,0.3-0.7,0.4-1.2,0.4c-0.5,0-0.9-0.1-1.2-0.4c-0.3-0.3-0.5-0.7-0.5-1.2v-8.4c0-1.3-0.2-2.3-0.7-2.9
			c-0.5-0.6-1.2-0.9-2.3-0.9c-1.2,0-2.1,0.4-2.9,1.2c-0.7,0.8-1.1,1.9-1.1,3.3v7.7c0,0.5-0.2,0.9-0.5,1.2c-0.3,0.3-0.7,0.4-1.2,0.4
			c-0.5,0-0.9-0.1-1.2-0.4c-0.3-0.3-0.5-0.7-0.5-1.2V9.5c0-0.5,0.2-0.9,0.5-1.1c0.3-0.3,0.7-0.4,1.2-0.4c0.5,0,0.8,0.1,1.1,0.4
			c0.3,0.3,0.4,0.6,0.4,1.1v1.2c0.5-0.9,1.1-1.6,2-2.1c0.8-0.5,1.8-0.7,2.9-0.7c1.2,0,2.2,0.3,3,0.8c0.8,0.5,1.4,1.3,1.8,2.3
			c0.5-0.9,1.2-1.7,2.1-2.2c0.9-0.6,2-0.8,3.2-0.8C123.6,7.9,125.4,10,125.4,14.3z"/>
		<path id="XMLID_120_" class="st0" d="M140.4,8.9c1.1,0.7,1.9,1.7,2.5,2.9c0.6,1.3,0.9,2.7,0.9,4.4c0,1.6-0.3,3.1-0.9,4.3
			c-0.6,1.2-1.4,2.2-2.5,2.9c-1.1,0.7-2.3,1-3.7,1c-1.2,0-2.3-0.3-3.2-0.8c-0.9-0.5-1.6-1.2-2.1-2.2v7.3c0,0.5-0.1,0.8-0.4,1.1
			c-0.3,0.3-0.7,0.4-1.2,0.4c-0.5,0-0.9-0.1-1.2-0.4c-0.3-0.3-0.5-0.7-0.5-1.1V9.6c0-0.5,0.2-0.9,0.5-1.2c0.3-0.3,0.7-0.4,1.2-0.4
			c0.5,0,0.9,0.1,1.2,0.4c0.3,0.3,0.5,0.7,0.5,1.2v1.3c0.5-1,1.2-1.7,2.1-2.2c0.9-0.5,2-0.8,3.2-0.8C138.1,7.9,139.4,8.2,140.4,8.9z
			 M139.3,20.4c0.8-1,1.2-2.3,1.2-4.1c0-1.8-0.4-3.2-1.2-4.2c-0.8-1-1.9-1.5-3.3-1.5c-1.4,0-2.5,0.5-3.3,1.5c-0.8,1-1.2,2.4-1.2,4.2
			c0,1.8,0.4,3.2,1.2,4.2c0.8,1,1.9,1.5,3.3,1.5C137.4,21.8,138.5,21.3,139.3,20.4z"/>
		<path id="XMLID_115_" class="st0" d="M155.8,9.3c0,0.5-0.1,0.8-0.4,1.1c-0.2,0.2-0.7,0.4-1.2,0.4l-1,0.1c-1.4,0.1-2.4,0.6-3.1,1.4
			c-0.7,0.8-1,1.8-1,3v7.5c0,0.5-0.2,0.9-0.5,1.2c-0.3,0.3-0.7,0.4-1.2,0.4c-0.5,0-0.9-0.1-1.2-0.4c-0.3-0.3-0.5-0.7-0.5-1.2V9.5
			c0-0.5,0.2-0.9,0.5-1.2c0.3-0.3,0.7-0.4,1.2-0.4c0.4,0,0.8,0.1,1.1,0.4c0.3,0.3,0.4,0.6,0.4,1.1v1.6c0.4-1,1.1-1.7,1.9-2.2
			c0.8-0.5,1.8-0.8,2.8-0.9l0.5,0C155.3,7.9,155.8,8.3,155.8,9.3z"/>
		<path id="XMLID_112_" class="st0" d="M167.5,9.5c1,1.1,1.5,2.7,1.5,4.9v8.4c0,0.5-0.1,0.9-0.4,1.2c-0.3,0.3-0.7,0.4-1.2,0.4
			c-0.5,0-0.9-0.1-1.1-0.4c-0.3-0.3-0.4-0.7-0.4-1.1v-1.2c-0.4,0.9-1,1.6-1.8,2.1c-0.8,0.5-1.8,0.7-2.9,0.7c-1,0-2-0.2-2.9-0.6
			c-0.9-0.4-1.5-1-2-1.8c-0.5-0.8-0.7-1.6-0.7-2.5c0-1.2,0.3-2.1,0.9-2.7c0.6-0.7,1.6-1.1,3-1.4c1.4-0.3,3.3-0.4,5.7-0.4h0.8V14
			c0-1.2-0.3-2.1-0.8-2.6c-0.5-0.5-1.3-0.8-2.4-0.8c-0.8,0-1.5,0.1-2.2,0.3c-0.7,0.2-1.4,0.5-2.2,0.8c-0.6,0.3-1,0.5-1.2,0.5
			c-0.3,0-0.6-0.1-0.8-0.4c-0.2-0.2-0.3-0.5-0.3-0.9c0-0.3,0.1-0.6,0.3-0.9c0.2-0.2,0.5-0.5,0.9-0.7c0.8-0.4,1.7-0.7,2.7-1
			c1-0.2,2-0.4,3-0.4C164.9,7.9,166.5,8.4,167.5,9.5z M164.7,20.8c0.8-0.8,1.1-1.9,1.1-3.1v-0.8h-0.6c-1.7,0-3,0.1-3.9,0.2
			c-0.9,0.2-1.6,0.4-2,0.8c-0.4,0.4-0.6,0.9-0.6,1.5c0,0.8,0.3,1.4,0.8,1.9c0.6,0.5,1.3,0.8,2.1,0.8C163,22,163.9,21.6,164.7,20.8z"
			/>
	</g>
	<g id="XMLID_106_">
		<path id="XMLID_110_" class="st0" d="M9.3,16.6H4.4c-0.8,0-1.4,0.7-1.4,1.5s0.6,1.5,1.4,1.5h4.9c0.8,0,1.4-0.7,1.4-1.5
			S10.1,16.6,9.3,16.6z"/>
		<path id="XMLID_107_" class="st0" d="M34.9,19.6h-1.5c0.8,0,1.4-1.8,1.8-2.9c0.6-1.5,0.9-2.9,0.9-4.6c0-1.6-0.3-3.1-1-4.6
			c-0.6-1.5-1.5-2.7-2.7-3.9c-1.1-1.1-2.4-2-3.9-2.6c-1.5-0.6-3.1-1-4.7-1c-1.7,0-3.3,0.3-4.8,1c-1.5,0.6-2.8,1.9-3.9,3
			c-0.7,0.7-1.3,1.6-1.8,2.6h-6C6.6,6.6,6,6.8,6,7.6s0.6,1,1.4,1h4.8c-0.3,1-0.5,2-0.5,2H1.4c-0.8,0-1.4,0.7-1.4,1.5
			c0,0.8,0.6,1.5,1.4,1.5h10.4c0.1,1,0.4,2.3,0.8,3.2c0.6,1.5,1.5,2.9,2.6,4c1.1,1.1,2.4,1.6,3.9,2.2c1.5,0.6,3.1,0.6,4.8,0.6h11
			c1.1,0,2-0.9,2-2S36,19.6,34.9,19.6z M31.8,15.6c-0.4,1.1-1.1,2-1.8,2.8c-0.8,0.8-1.7,1.4-2.7,1.9c-1,0.5-2.1,0.7-3.3,0.7
			c-1.2,0-2.3-0.2-3.4-0.7c-1-0.5-2-1.1-2.7-1.9c-0.8-0.8-1.4-1.7-1.8-2.8c-0.4-1.1-0.7-2.2-0.7-3.4c0-1.2,0.2-2.3,0.7-3.4
			c0.4-1.1,1-2,1.8-2.8c0.8-0.8,1.7-1.4,2.7-1.9c1-0.5,2.2-0.7,3.3-0.7s2.3,0.2,3.3,0.7c1,0.5,2,1.1,2.7,1.9
			c0.8,0.8,1.4,1.7,1.8,2.8c0.5,1.1,0.7,2.2,0.7,3.4C32.4,13.4,32.2,14.5,31.8,15.6z"/>
	</g>
	<g id="XMLID_99_">
		<path id="XMLID_104_" class="st0" d="M172.5,23.9c-0.3-0.3-0.4-0.7-0.4-1.1c0-0.5,0.1-0.8,0.4-1.1s0.7-0.4,1.1-0.4
			c0.4,0,0.8,0.1,1.1,0.4s0.4,0.7,0.4,1.1c0,0.5-0.1,0.8-0.4,1.1s-0.6,0.4-1.1,0.4C173.2,24.4,172.8,24.2,172.5,23.9z"/>
		<path id="XMLID_102_" class="st0" d="M180,23.4c-1.1-0.7-2-1.6-2.6-2.9c-0.6-1.2-0.9-2.7-0.9-4.3c0-1.6,0.3-3.1,0.9-4.3
			c0.6-1.3,1.5-2.2,2.6-2.9c1.1-0.7,2.4-1,3.9-1c0.8,0,1.6,0.1,2.4,0.3c0.8,0.2,1.5,0.5,2.1,1c0.4,0.3,0.7,0.5,0.8,0.8
			c0.2,0.2,0.2,0.5,0.2,0.7c0,0.2-0.1,0.4-0.2,0.6c-0.1,0.2-0.3,0.2-0.5,0.2c-0.2,0-0.6-0.2-1-0.6c-0.6-0.4-1.1-0.7-1.7-1
			c-0.6-0.2-1.3-0.4-2.1-0.4c-1.7,0-3,0.6-4,1.7c-1,1.2-1.4,2.8-1.4,4.8c0,2,0.5,3.6,1.4,4.7c0.9,1.1,2.3,1.7,4,1.7
			c0.8,0,1.5-0.1,2.1-0.4c0.6-0.2,1.2-0.6,1.8-1c0.2-0.1,0.4-0.2,0.6-0.4c0.2-0.1,0.3-0.2,0.4-0.2c0.2,0,0.4,0.1,0.5,0.2
			c0.1,0.2,0.2,0.3,0.2,0.6c0,0.3-0.1,0.5-0.2,0.7c-0.2,0.2-0.4,0.4-0.9,0.8c-0.6,0.4-1.3,0.8-2.1,1c-0.8,0.2-1.7,0.4-2.5,0.4
			C182.4,24.4,181.1,24.1,180,23.4z"/>
		<path id="XMLID_100_" class="st0" d="M191.7,24.1c-0.2-0.2-0.3-0.4-0.3-0.8V2.1c0-0.3,0.1-0.6,0.3-0.8c0.2-0.2,0.4-0.3,0.7-0.3
			c0.3,0,0.5,0.1,0.7,0.3c0.2,0.2,0.3,0.4,0.3,0.8v21.3c0,0.3-0.1,0.6-0.3,0.8c-0.2,0.2-0.4,0.3-0.7,0.3
			C192.1,24.4,191.8,24.3,191.7,24.1z"/>
	</g>
</g>
</svg>
