<?xml version="1.0" encoding="utf-8"?>
<!-- Generator: Adobe Illustrator 19.0.0, SVG Export Plug-In . SVG Version: 6.00 Build 0)  -->
<svg version="1.1" id="Capa_1" xmlns="http://www.w3.org/2000/svg" xmlns:xlink="http://www.w3.org/1999/xlink" x="0px" y="0px"
	 viewBox="0 0 180 29.1" style="enable-background:new 0 0 180 29.1;" xml:space="preserve">
<style type="text/css">
	.st0{fill:#FFFFFF;}
	.st1{fill:url(#XMLID_80_);}
	.st2{fill:url(#XMLID_81_);}
</style>
<g id="XMLID_112_">
	<g id="XMLID_147_">
		<path id="XMLID_166_" class="st0" d="M49.1,8.6c0.3,0.3,0.4,0.6,0.4,1.1v12.2c0,0.4-0.1,0.8-0.4,1c-0.3,0.3-0.6,0.4-1.1,0.4
			c-0.4,0-0.8-0.1-1-0.4c-0.3-0.2-0.4-0.6-0.4-1v-1.1c-0.5,0.8-1.1,1.5-1.9,1.9c-0.8,0.4-1.7,0.7-2.7,0.7c-3.5,0-5.3-2-5.3-5.9V9.6
			c0-0.5,0.1-0.8,0.4-1.1c0.3-0.3,0.6-0.4,1.1-0.4c0.5,0,0.8,0.1,1.1,0.4c0.3,0.3,0.4,0.6,0.4,1.1v7.7c0,1.2,0.2,2,0.7,2.6
			c0.5,0.6,1.2,0.8,2.2,0.8c1.2,0,2.1-0.4,2.8-1.1c0.7-0.8,1.1-1.8,1.1-3v-7c0-0.4,0.1-0.8,0.4-1.1c0.3-0.3,0.6-0.4,1.1-0.4
			C48.5,8.2,48.8,8.3,49.1,8.6z"/>
		<path id="XMLID_163_" class="st0" d="M64.3,19.7c0.2,0.2,0.3,0.5,0.3,0.8c0,0.6-0.4,1.1-1.1,1.5c-0.7,0.4-1.5,0.7-2.3,0.9
			c-0.8,0.2-1.6,0.3-2.4,0.3c-2.3,0-4.1-0.7-5.5-2c-1.3-1.3-2-3.2-2-5.5c0-1.5,0.3-2.8,0.9-4c0.6-1.2,1.4-2.1,2.5-2.7
			c1.1-0.6,2.3-1,3.6-1c2,0,3.5,0.6,4.6,1.9c1.1,1.3,1.7,3,1.7,5.1c0,0.8-0.4,1.2-1.1,1.2h-9.2c0.2,3.1,1.7,4.6,4.5,4.6
			c0.7,0,1.4-0.1,1.9-0.3c0.5-0.2,1.1-0.5,1.7-0.8c0.1,0,0.2-0.1,0.5-0.3c0.3-0.1,0.5-0.2,0.7-0.2C63.9,19.4,64.1,19.5,64.3,19.7z
			 M55.7,11.4c-0.7,0.7-1.1,1.8-1.3,3.1h7.7c-0.1-1.4-0.4-2.4-1-3.1c-0.6-0.7-1.5-1.1-2.6-1.1C57.3,10.3,56.4,10.7,55.7,11.4z"/>
		<path id="XMLID_161_" class="st0" d="M69.1,22.4c-1.1-0.6-1.9-1.5-2.5-2.6c-0.6-1.1-0.9-2.5-0.9-3.9c0-1.5,0.3-2.9,0.9-4
			c0.6-1.2,1.5-2.1,2.6-2.7c1.1-0.6,2.4-1,3.8-1c0.8,0,1.5,0.1,2.3,0.3c0.8,0.2,1.5,0.5,2,0.9c0.6,0.4,1,0.9,1,1.5
			c0,0.3-0.1,0.6-0.3,0.9c-0.2,0.2-0.4,0.3-0.7,0.3c-0.2,0-0.4,0-0.5-0.1c-0.2-0.1-0.4-0.2-0.7-0.4c-0.5-0.3-1-0.6-1.4-0.7
			c-0.4-0.2-0.9-0.3-1.5-0.3c-1.4,0-2.4,0.5-3.2,1.4c-0.7,0.9-1.1,2.2-1.1,3.8c0,1.6,0.4,2.9,1.1,3.8c0.7,0.9,1.8,1.3,3.1,1.3
			c0.6,0,1.1-0.1,1.6-0.3c0.5-0.2,0.9-0.4,1.4-0.7c0.2-0.1,0.4-0.3,0.7-0.4c0.2-0.1,0.4-0.1,0.6-0.1c0.3,0,0.5,0.1,0.7,0.3
			c0.2,0.2,0.3,0.5,0.3,0.9c0,0.3-0.1,0.5-0.2,0.8c-0.1,0.2-0.4,0.5-0.8,0.7c-0.6,0.4-1.3,0.7-2.1,0.9c-0.8,0.2-1.6,0.3-2.4,0.3
			C71.4,23.3,70.1,23,69.1,22.4z"/>
		<path id="XMLID_158_" class="st0" d="M82,22.4c-1.1-0.6-1.9-1.5-2.5-2.6c-0.6-1.1-0.9-2.5-0.9-4c0-1.5,0.3-2.9,0.9-4
			c0.6-1.1,1.4-2,2.5-2.6c1.1-0.6,2.3-0.9,3.8-0.9s2.7,0.3,3.8,0.9c1.1,0.6,1.9,1.5,2.5,2.6c0.6,1.1,0.9,2.5,0.9,4
			c0,1.5-0.3,2.8-0.9,4c-0.6,1.1-1.4,2-2.5,2.6c-1.1,0.6-2.3,0.9-3.8,0.9S83.1,23,82,22.4z M88.9,19.6c0.7-0.9,1.1-2.2,1.1-3.9
			c0-1.7-0.4-3-1.1-3.8c-0.7-0.9-1.7-1.3-3.1-1.3s-2.3,0.4-3.1,1.3c-0.7,0.9-1.1,2.2-1.1,3.8c0,1.7,0.4,3,1.1,3.9
			c0.7,0.9,1.7,1.3,3.1,1.3C87.2,20.9,88.2,20.4,88.9,19.6z"/>
		<path id="XMLID_156_" class="st0" d="M116.5,14v7.8c0,0.5-0.1,0.8-0.4,1.1c-0.3,0.2-0.6,0.4-1.1,0.4c-0.4,0-0.8-0.1-1.1-0.4
			c-0.3-0.2-0.4-0.6-0.4-1.1V14c0-1.2-0.2-2.1-0.7-2.6c-0.4-0.5-1.1-0.8-2.1-0.8c-1.1,0-2,0.4-2.6,1.1c-0.6,0.7-1,1.8-1,3.1v7
			c0,0.5-0.1,0.8-0.4,1.1c-0.3,0.2-0.6,0.4-1.1,0.4c-0.4,0-0.8-0.1-1.1-0.4c-0.3-0.2-0.4-0.6-0.4-1.1V14c0-1.2-0.2-2.1-0.7-2.6
			c-0.4-0.5-1.1-0.8-2.1-0.8c-1.1,0-2,0.4-2.6,1.1c-0.6,0.7-1,1.8-1,3.1v7c0,0.5-0.1,0.8-0.4,1.1c-0.3,0.2-0.6,0.4-1.1,0.4
			c-0.4,0-0.8-0.1-1.1-0.4c-0.3-0.2-0.4-0.6-0.4-1.1V9.6c0-0.4,0.1-0.8,0.4-1c0.3-0.3,0.7-0.4,1.1-0.4c0.4,0,0.8,0.1,1,0.4
			c0.3,0.2,0.4,0.6,0.4,1v1.1c0.4-0.8,1-1.5,1.8-1.9c0.8-0.4,1.7-0.7,2.7-0.7c1.1,0,2,0.2,2.8,0.7c0.7,0.5,1.3,1.2,1.6,2.1
			c0.4-0.9,1.1-1.5,1.9-2c0.9-0.5,1.8-0.8,2.9-0.8C114.9,8.1,116.5,10.1,116.5,14z"/>
		<path id="XMLID_153_" class="st0" d="M130.3,9.1c1,0.6,1.8,1.5,2.3,2.7c0.5,1.2,0.8,2.5,0.8,4c0,1.5-0.3,2.8-0.8,3.9
			c-0.5,1.1-1.3,2-2.3,2.6c-1,0.6-2.1,0.9-3.4,0.9c-1.1,0-2.1-0.2-2.9-0.7c-0.8-0.5-1.5-1.1-1.9-2v6.7c0,0.4-0.1,0.8-0.4,1
			c-0.3,0.2-0.6,0.4-1.1,0.4c-0.5,0-0.8-0.1-1.1-0.4c-0.3-0.3-0.4-0.6-0.4-1V9.6c0-0.4,0.1-0.8,0.4-1.1c0.3-0.3,0.6-0.4,1.1-0.4
			c0.4,0,0.8,0.1,1.1,0.4c0.3,0.3,0.4,0.6,0.4,1.1v1.2c0.4-0.9,1.1-1.6,1.9-2c0.8-0.5,1.8-0.7,2.9-0.7
			C128.2,8.1,129.4,8.4,130.3,9.1z M129.3,19.6c0.7-0.9,1.1-2.1,1.1-3.8c0-1.7-0.4-2.9-1.1-3.9c-0.7-0.9-1.7-1.4-3-1.4
			c-1.3,0-2.3,0.4-3,1.3c-0.7,0.9-1.1,2.2-1.1,3.8c0,1.7,0.4,2.9,1.1,3.8c0.7,0.9,1.7,1.3,3,1.3S128.6,20.4,129.3,19.6z"/>
		<path id="XMLID_151_" class="st0" d="M144.4,9.4c0,0.4-0.1,0.8-0.3,1c-0.2,0.2-0.6,0.3-1.1,0.4l-0.9,0.1c-1.3,0.1-2.2,0.6-2.8,1.3
			c-0.6,0.8-0.9,1.7-0.9,2.8v6.8c0,0.5-0.1,0.8-0.4,1.1c-0.3,0.2-0.6,0.4-1.1,0.4c-0.4,0-0.8-0.1-1.1-0.4c-0.3-0.2-0.4-0.6-0.4-1.1
			V9.6c0-0.5,0.1-0.8,0.4-1.1c0.3-0.2,0.7-0.4,1.1-0.4c0.4,0,0.7,0.1,1,0.4c0.3,0.2,0.4,0.6,0.4,1V11c0.4-0.9,1-1.5,1.7-2
			c0.8-0.5,1.6-0.7,2.6-0.8l0.4,0C143.9,8.1,144.4,8.5,144.4,9.4z"/>
		<path id="XMLID_148_" class="st0" d="M155.1,9.6c0.9,1,1.4,2.5,1.4,4.5v7.7c0,0.5-0.1,0.8-0.4,1.1c-0.3,0.2-0.6,0.4-1.1,0.4
			c-0.4,0-0.8-0.1-1-0.4c-0.3-0.3-0.4-0.6-0.4-1v-1.1c-0.4,0.8-0.9,1.5-1.7,1.9c-0.7,0.4-1.6,0.7-2.6,0.7c-1,0-1.8-0.2-2.6-0.6
			c-0.8-0.4-1.4-0.9-1.9-1.6c-0.4-0.7-0.7-1.5-0.7-2.3c0-1.1,0.3-1.9,0.8-2.5c0.5-0.6,1.5-1,2.7-1.3c1.3-0.3,3-0.4,5.2-0.4h0.7v-0.9
			c0-1.1-0.2-1.9-0.7-2.4c-0.5-0.5-1.2-0.7-2.2-0.7c-0.7,0-1.4,0.1-2,0.3c-0.6,0.2-1.3,0.4-2,0.8c-0.5,0.3-0.9,0.4-1.1,0.4
			c-0.3,0-0.5-0.1-0.7-0.3c-0.2-0.2-0.3-0.5-0.3-0.8c0-0.3,0.1-0.6,0.3-0.8c0.2-0.2,0.4-0.5,0.8-0.7c0.7-0.4,1.5-0.7,2.5-0.9
			c0.9-0.2,1.8-0.3,2.7-0.3C152.7,8.1,154.2,8.6,155.1,9.6z M152.6,19.9c0.7-0.7,1-1.7,1-2.9v-0.8h-0.5c-1.6,0-2.8,0.1-3.6,0.2
			c-0.8,0.1-1.4,0.4-1.8,0.7c-0.4,0.3-0.5,0.8-0.5,1.4c0,0.7,0.3,1.3,0.8,1.8c0.5,0.5,1.2,0.7,1.9,0.7C151,21,151.9,20.7,152.6,19.9
			z"/>
	</g>
	<linearGradient id="XMLID_80_" gradientUnits="userSpaceOnUse" x1="7.371" y1="18.75" x2="7.371" y2="15.75">
		<stop  offset="0" style="stop-color:#FF6348"/>
		<stop  offset="1" style="stop-color:#FF7F50"/>
	</linearGradient>
	<path id="XMLID_146_" class="st1" d="M9.6,15.8H5.1c-0.7,0-1.2,0.8-1.2,1.5s0.6,1.5,1.2,1.5h4.5c0.7,0,1.2-0.8,1.2-1.5
		S10.3,15.8,9.6,15.8z"/>
	<linearGradient id="XMLID_81_" gradientUnits="userSpaceOnUse" x1="18.0243" y1="23.75" x2="18.0243" y2="0.895">
		<stop  offset="0" style="stop-color:#FF6348"/>
		<stop  offset="1" style="stop-color:#FF7F50"/>
	</linearGradient>
	<path id="XMLID_123_" class="st2" d="M33,19.8h-1.4c0.7-1,1.3-2.1,1.7-3.1c0.5-1.4,0.8-2.9,0.8-4.4c0-1.5-0.3-3-0.9-4.4
		c-0.6-1.3-1.4-2.6-2.4-3.6c-1-1-2.2-1.9-3.6-2.4c-1.4-0.6-2.8-0.9-4.3-0.9c-1.5,0-3,0.3-4.4,0.9C17.2,2.4,16,2.9,15,3.9
		c-0.6,0.6-1.2,0.8-1.6,1.8H7.9c-0.7,0-1.2,0.8-1.2,1.5s0.6,1.5,1.2,1.5h4.4c-0.3,0-0.4,1-0.5,2H2.4c-0.7,0-1.2,0.8-1.2,1.5
		c0,0.7,0.6,1.5,1.2,1.5h9.5c0.1,1,0.4,1.9,0.8,2.7C13.2,17.8,14,19,15,20c1,1,2.2,2.1,3.5,2.6c1.3,0.6,2.8,1.1,4.4,1.1H33
		c1,0,1.9-1,1.9-2S34.1,19.8,33,19.8z M30.2,15.2c-0.4,1-1,1.8-1.7,2.5C27.8,18.4,27,19,26,19.4c-0.9,0.4-2,0.6-3,0.6
		c-1.1,0-2.1-0.2-3.1-0.6c-1-0.4-1.8-1-2.5-1.7c-0.7-0.7-1.3-1.6-1.7-2.5c-0.4-1-0.6-2-0.6-3.1c0-1.1,0.2-2.1,0.6-3.1
		c0.4-1,1-1.8,1.7-2.5c0.7-0.7,1.5-1.3,2.5-1.7c1-0.4,2-0.6,3.1-0.6C24,4.1,25,4.3,26,4.7c1,0.4,1.8,1,2.5,1.7
		C29.2,7.1,29.8,8,30.2,9c0.4,1,0.6,2,0.6,3.1C30.8,13.2,30.6,14.2,30.2,15.2z"/>
	<g id="XMLID_113_">
		<path id="XMLID_121_" class="st0" d="M159.7,22.8c-0.3-0.3-0.4-0.6-0.4-1c0-0.4,0.1-0.8,0.4-1c0.3-0.3,0.6-0.4,1-0.4
			c0.4,0,0.7,0.1,1,0.4c0.3,0.3,0.4,0.6,0.4,1c0,0.4-0.1,0.8-0.4,1c-0.3,0.3-0.6,0.4-1,0.4C160.3,23.2,160,23.1,159.7,22.8z"/>
		<path id="XMLID_116_" class="st0" d="M166.6,22.4c-1-0.6-1.8-1.5-2.4-2.6c-0.6-1.1-0.8-2.4-0.8-3.9c0-1.5,0.3-2.8,0.9-4
			c0.6-1.1,1.4-2,2.4-2.7c1-0.6,2.2-1,3.5-1c0.8,0,1.5,0.1,2.2,0.3c0.7,0.2,1.4,0.5,1.9,0.9c0.4,0.3,0.6,0.5,0.8,0.7
			c0.1,0.2,0.2,0.4,0.2,0.7c0,0.2-0.1,0.4-0.2,0.5c-0.1,0.1-0.3,0.2-0.4,0.2c-0.2,0-0.5-0.2-1-0.5c-0.5-0.4-1-0.7-1.6-0.9
			c-0.5-0.2-1.1-0.3-1.9-0.3c-1.6,0-2.8,0.5-3.6,1.6c-0.9,1.1-1.3,2.5-1.3,4.4c0,1.9,0.4,3.3,1.3,4.3c0.9,1,2.1,1.5,3.6,1.5
			c0.8,0,1.4-0.1,1.9-0.3c0.5-0.2,1.1-0.5,1.7-0.9c0.2-0.1,0.4-0.2,0.5-0.3c0.2-0.1,0.3-0.1,0.4-0.1c0.2,0,0.4,0.1,0.5,0.2
			c0.1,0.1,0.2,0.3,0.2,0.5c0,0.2-0.1,0.4-0.2,0.6c-0.1,0.2-0.4,0.4-0.8,0.7c-0.5,0.4-1.2,0.7-2,0.9c-0.8,0.2-1.5,0.3-2.3,0.3
			C168.8,23.3,167.6,23,166.6,22.4z"/>
		<path id="XMLID_114_" class="st0" d="M177.3,23c-0.2-0.2-0.3-0.4-0.3-0.7V2.8c0-0.3,0.1-0.5,0.3-0.7c0.2-0.2,0.4-0.2,0.7-0.2
			c0.3,0,0.5,0.1,0.6,0.2c0.2,0.2,0.3,0.4,0.3,0.7v19.5c0,0.3-0.1,0.5-0.3,0.7c-0.2,0.2-0.4,0.2-0.6,0.2
			C177.7,23.2,177.5,23.1,177.3,23z"/>
	</g>
</g>
</svg>
